<?xml version="1.0" encoding="iso-8859-1"?>
<!-- Generator: Adobe Illustrator 19.0.0, SVG Export Plug-In . SVG Version: 6.00 Build 0)  -->
<svg version="1.1" id="Capa_1" xmlns="http://www.w3.org/2000/svg" xmlns:xlink="http://www.w3.org/1999/xlink" x="0px" y="0px"
	 viewBox="0 0 480 480" style="enable-background:new 0 0 480 480;" xml:space="preserve">
<g>
	<g>
		<path d="M299.586,338.338c-7.864-7.863-18.529-12.281-29.65-12.282c-11.129-0.028-21.808,4.397-29.656,12.288l-2.344,2.344
			l-2.344-2.344c-16.379-16.379-42.933-16.379-59.312,0s-16.379,42.933,0,59.312l56,56c3.124,3.123,8.188,3.123,11.312,0l56-56
			C315.97,381.274,315.968,354.717,299.586,338.338z M288.28,386.344l-50.344,50.344l-50.344-50.344
			c-10.246-10.016-10.432-26.442-0.416-36.688s26.442-10.432,36.688-0.416c0.14,0.137,0.279,0.276,0.416,0.416l8,8
			c3.124,3.123,8.188,3.123,11.312,0l8-8c10.266-9.799,26.422-9.799,36.688,0C298.401,359.791,298.401,376.209,288.28,386.344z"/>
	</g>
</g>
<g>
	<g>
		<path d="M172,32h-64c-4.418,0-8,3.582-8,8v72c0,4.418,3.582,8,8,8h64c4.418,0,8-3.582,8-8V40C180,35.582,176.418,32,172,32z
			 M164,104h-48V48h48V104z"/>
	</g>
</g>
<g>
	<g>
		<path d="M268,32h-64c-4.418,0-8,3.582-8,8v72c0,4.418,3.582,8,8,8h64c4.418,0,8-3.582,8-8V40C276,35.582,272.418,32,268,32z
			 M260,104h-48V48h48V104z"/>
	</g>
</g>
<g>
	<g>
		<path d="M364,32h-64c-4.418,0-8,3.582-8,8v72c0,4.418,3.582,8,8,8h64c4.418,0,8-3.582,8-8V40C372,35.582,368.418,32,364,32z
			 M356,104h-48V48h48V104z"/>
	</g>
</g>
<g>
	<g>
		<path d="M172,136h-64c-4.418,0-8,3.582-8,8v72c0,4.418,3.582,8,8,8h64c4.418,0,8-3.582,8-8v-72C180,139.582,176.418,136,172,136z
			 M164,208h-48v-56h48V208z"/>
	</g>
</g>
<g>
	<g>
		<path d="M268,136h-64c-4.418,0-8,3.582-8,8v72c0,4.418,3.582,8,8,8h64c4.418,0,8-3.582,8-8v-72C276,139.582,272.418,136,268,136z
			 M260,208h-48v-56h48V208z"/>
	</g>
</g>
<g>
	<g>
		<path d="M364,136h-64c-4.418,0-8,3.582-8,8v72c0,4.418,3.582,8,8,8h64c4.418,0,8-3.582,8-8v-72C372,139.582,368.418,136,364,136z
			 M356,208h-48v-56h48V208z"/>
	</g>
</g>
<g>
	<g>
		<path d="M435.952,327.12l-8-72c-0.449-4.053-3.874-7.12-7.952-7.12h-16V8c0-4.418-3.582-8-8-8H76c-4.418,0-8,3.582-8,8v224.736
			L52.376,232c-2.186-0.118-4.322,0.679-5.896,2.2c-1.586,1.512-2.483,3.609-2.48,5.8v40c0.001,4.034,3.005,7.436,7.008,7.936
			L68,290.064V472c0,4.418,3.582,8,8,8h320c4.418,0,8-3.582,8-8V336h24c2.275,0,4.443-0.969,5.96-2.664
			C435.477,331.641,436.202,329.381,435.952,327.12z M68,273.936l-8-1v-24.552l8,0.368V273.936z M84,249.496l300.648,13.992
			l-17.92,47.792L84,275.936V249.496z M388,328v136H84V292.064l287.008,35.872c0.329,0.041,0.66,0.062,0.992,0.064
			c3.332,0,6.315-2.065,7.488-5.184L388,300.128V328z M388,247.616L84,233.48V16h304V247.616z M404,320v-56h8.8l6.232,56H404z"/>
	</g>
</g>
<g>
</g>
<g>
</g>
<g>
</g>
<g>
</g>
<g>
</g>
<g>
</g>
<g>
</g>
<g>
</g>
<g>
</g>
<g>
</g>
<g>
</g>
<g>
</g>
<g>
</g>
<g>
</g>
<g>
</g>
</svg>
