<?xml version="1.0"?>
<svg xmlns="http://www.w3.org/2000/svg" height="512px" viewBox="0 0 512 512" width="512px"><path d="m376 316c-5.519531 0-10 4.480469-10 10s4.480469 10 10 10 10-4.480469 10-10-4.480469-10-10-10zm0 0" fill="#fdff8c"/><path d="m345.042969 350.628906c-24.21875 22.808594-55.839844 35.371094-89.042969 35.371094-46.183594 0-89.3125-24.910156-112.558594-65.015625-2.769531-4.777344-8.886718-6.40625-13.667968-3.636719-4.777344 2.769532-6.40625 8.886719-3.636719 13.667969 26.808593 46.253906 76.570312 74.984375 129.863281 74.984375 38.316406 0 74.8125-14.492188 102.757812-40.808594 4.019532-3.789062 4.207032-10.117187.421876-14.136718-3.785157-4.023438-10.113282-4.210938-14.136719-.425782zm0 0" fill="#fdff8c"/><path d="m490.09375 169.460938c-2.632812.355468-5.355469.539062-8.09375.539062-33.085938 0-60-26.914062-60-60 0-5.523438-4.476562-10-10-10-33.085938 0-60-26.914062-60-60 0-4.558594.511719-9.09375 1.515625-13.472656 1.132813-4.921875-1.585937-9.917969-6.335937-11.640625-25.722657-9.320313-59.808594-14.886719-91.179688-14.886719-137.902344 0-256 117.691406-256 256 0 136.800781 116.667969 256 256 256 137.71875 0 255.019531-117.109375 255.988281-254.285156.011719-.570313.011719-1.144532.011719-1.714844 0-26.988281-4.214844-57.476562-11-79.566406-1.4375-4.679688-6.058594-7.628906-10.90625-6.972656zm-234.09375-149.460938c25.628906 0 54.105469 4.171875 76.496094 11.0625-.332032 2.960938-.496094 5.945312-.496094 8.9375 0 40.914062 30.878906 74.757812 70.554688 79.445312 4.6875 39.675782 38.527343 70.554688 79.445312 70.554688.679688 0 1.355469-.007812 2.03125-.023438 4.234375 16.53125 7.03125 36.765626 7.769531 56.066407-18.984375-.351563-37.03125 10.054687-45.804687 27.597656-8.234375 16.46875-31.753906 16.472656-39.992188-.003906-7.886718-15.757813-23.132812-25.992188-40.445312-27.449219-4.984375-56.074219-52.210938-100.1875-109.558594-100.1875-60.652344 0-110 49.347656-110 110 0 3.242188.152344 6.476562.433594 9.695312-9.671875-1.371093-18.082032-7.347656-22.550782-16.277343-15.601562-31.207031-60.164062-31.207031-75.765624-.003907-5.117188 10.230469-15.402344 16.585938-26.835938 16.585938h-1.050781c-.152344-3.324219-.230469-6.667969-.230469-10 0-127.925781 108.074219-236 236-236zm-88.1875 254.019531c-.003906-.023437-.007812-.042969-.011719-.066406-1.195312-5.855469-1.800781-11.894531-1.800781-17.953125 0-49.625 40.375-90 90-90s90 40.375 90 90-40.375 90-90 90c-42.59375 0-79.679688-30.269531-88.1875-71.980469zm88.1875 217.980469c-115.71875 0-218.40625-91.449219-233.960938-206.011719 18.753907-.277343 35.550782-10.804687 43.964844-27.625 8.238282-16.472656 31.753906-16.476562 39.992188 0 8.449218 16.886719 25.34375 27.429688 44.183594 27.628907 13.277343 46.816406 56.519531 80.007812 105.820312 80.007812 57.183594 0 104.304688-43.859375 109.515625-99.707031 9.695313 1.359375 18.125 7.34375 22.597656 16.289062 15.605469 31.207031 60.167969 31.203125 75.769531.003907 5.3125-10.621094 16.320313-16.875 27.867188-16.535157-5.511719 123.335938-111.550781 225.949219-235.75 225.949219zm0 0" fill="#fdff8c"/><path d="m83.070312 203.070312 20-20c3.90625-3.90625 3.90625-10.234374 0-14.140624s-10.234374-3.90625-14.140624 0l-20 20c-3.90625 3.902343-3.90625 10.234374 0 14.140624s10.234374 3.90625 14.140624 0zm0 0" fill="#fdff8c"/><path d="m136 126h20c5.523438 0 10-4.476562 10-10s-4.476562-10-10-10h-20c-5.523438 0-10 4.476562-10 10s4.476562 10 10 10zm0 0" fill="#fdff8c"/><path d="m326 146h20c5.523438 0 10-4.476562 10-10s-4.476562-10-10-10h-20c-5.523438 0-10 4.476562-10 10s4.476562 10 10 10zm0 0" fill="#fdff8c"/><path d="m418.929688 243.070312c3.90625 3.90625 10.234374 3.90625 14.140624 0s3.90625-10.234374 0-14.140624l-20-20c-3.902343-3.90625-10.234374-3.90625-14.140624 0-3.90625 3.902343-3.90625 10.234374 0 14.140624zm0 0" fill="#fdff8c"/><path d="m248.929688 103.070312c3.90625 3.90625 10.234374 3.90625 14.140624 0s3.90625-10.234374 0-14.140624l-20-20c-3.902343-3.90625-10.234374-3.90625-14.140624 0-3.90625 3.902343-3.90625 10.234374 0 14.140624zm0 0" fill="#fdff8c"/></svg>
